0
SECTION
2
HEADER
9
$INSUNITS
70
4
9
$ACADVER
1
AC1014
9
$HANDSEED
5
FFFF
0
ENDSEC
0
SECTION
2
TABLES
0
TABLE
2
VPORT
5
8
100
AcDbSymbolTable
0
ENDTAB
0
TABLE
2
LTYPE
5
5
100
AcDbSymbolTable
0
LTYPE
5
14
100
AcDbSymbolTableRecord
100
AcDbLinetypeTableRecord
2
BYBLOCK
70
0
0
LTYPE
5
15
100
AcDbSymbolTableRecord
100
AcDbLinetypeTableRecord
2
BYLAYER
70
0
0
ENDTAB
0
TABLE
2
LAYER
5
2
100
AcDbSymbolTable
70
2
0
LAYER
5
50
100
AcDbSymbolTableRecord
100
AcDbLayerTableRecord
2
0
70
0
6
CONTINUOUS
0
ENDTAB
0
TABLE
2
STYLE
5
3
100
AcDbSymbolTable
70
1
0
STYLE
5
11
100
AcDbSymbolTableRecord
100
AcDbTextStyleTableRecord
2
STANDARD
70
0
0
ENDTAB
0
TABLE
2
VIEW
5
6
100
AcDbSymbolTable
70
0
0
ENDTAB
0
TABLE
2
UCS
5
7
100
AcDbSymbolTable
70
0
0
ENDTAB
0
TABLE
2
APPID
5
9
100
AcDbSymbolTable
70
2
0
APPID
5
12
100
AcDbSymbolTableRecord
100
AcDbRegAppTableRecord
2
ACAD
70
0
0
ENDTAB
0
TABLE
2
DIMSTYLE
5
A
100
AcDbSymbolTable
70
1
0
ENDTAB
0
TABLE
2
BLOCK_RECORD
5
1
100
AcDbSymbolTable
70
1
0
BLOCK_RECORD
5
1F
100
AcDbSymbolTableRecord
100
AcDbBlockTableRecord
2
*MODEL_SPACE
0
BLOCK_RECORD
5
1B
100
AcDbSymbolTableRecord
100
AcDbBlockTableRecord
2
*PAPER_SPACE
0
ENDTAB
0
ENDSEC
0
SECTION
2
BLOCKS
0
BLOCK
5
20
100
AcDbEntity
100
AcDbBlockBegin
2
*MODEL_SPACE
0
ENDBLK
5
21
100
AcDbEntity
100
AcDbBlockEnd
0
BLOCK
5
1C
100
AcDbEntity
100
AcDbBlockBegin
2
*PAPER_SPACE
0
ENDBLK
5
1D
100
AcDbEntity
100
AcDbBlockEnd
0
ENDSEC
0
SECTION
2
ENTITIES
0
LWPOLYLINE
5
100
100
AcDbEntity
8
0
100
AcDbPolyline
90
100
70
1
43
0.0
10
-14.999999999999998
20
24.997180999735885
42
2.6143284232082364
10
-6.3360007377048149
20
21.499999999999957
10
-5.176776695296593
20
21.499999999999954
42
1.0000005391257223
10
-5.0000000000000009
20
21.676776695296567
10
-4.9999999999999991
20
26.500000000000028
10
5.0000000000000009
20
26.500000000000028
10
4.9999999999999902
20
21.676776695296581
42
1.0000005391257223
10
5.1767766952966987
20
21.500000000000025
10
14.823223304703369
20
21.500000000000025
42
1.0000005390227473
10
15
20
21.676776695296564
10
15
20
26.500000000000025
10
25
20
26.500000000000025
10
25.000000000000007
20
21.676776695296631
42
1.0000005391772024
10
25.176776695296663
20
21.500000000000021
10
34.823223304703369
20
21.500000000000021
42
1.0000005390227473
10
35
20
21.67677669529656
10
35
20
26.500000000000021
10
45
20
26.500000000000021
10
45.000000000000007
20
21.676776695296628
42
1.0000005390227473
10
45.176776695296667
20
21.500000000000018
10
54.823223304703376
20
21.500000000000018
42
1.0000005390227473
10
55
20
21.676776695296557
10
55
20
26.500000000000021
10
66.585000000000036
20
26.500000000000018
10
66.585000000000022
20
15.176776695296649
42
1.0000005390227473
10
66.761776695296589
20
14.999999999999957
10
71.585000000000036
20
14.999999999999957
10
71.585000000000036
20
4.9999999999999591
10
66.761776695296632
20
4.9999999999999618
42
1.0000005391257223
10
66.585000000000036
20
4.8232233047033501
10
66.585000000000022
20
-4.823223304703351
42
1.0000005390227473
10
66.761776695296589
20
-5.0000000000000391
10
71.585000000000036
20
-5.00000000000004
10
71.585000000000036
20
-15.000000000000039
10
66.761776695296632
20
-15.000000000000039
42
1.0000005390227473
10
66.585000000000022
20
-15.176776695296649
10
66.585000000000022
20
-26.500000000000028
10
54.999999999999986
20
-26.500000000000025
10
54.999999999999972
20
-21.676776695296628
42
1.0000005390227473
10
54.823223304703319
20
-21.500000000000025
10
45.17677669529661
20
-21.500000000000025
42
1.0000005390227473
10
44.999999999999986
20
-21.676776695296564
10
44.999999999999986
20
-26.500000000000018
10
34.999999999999986
20
-26.500000000000018
10
34.999999999999972
20
-21.676776695296617
42
1.0000005390227473
10
34.823223304703319
20
-21.500000000000018
10
25.176776695296617
20
-21.500000000000018
42
1.0000005390227473
10
24.999999999999982
20
-21.676776695296557
10
24.999999999999982
20
-26.500000000000018
10
14.999999999999982
20
-26.500000000000018
10
14.999999999999973
20
-21.676776695296688
42
1.0000005390227473
10
14.823223304703399
20
-21.500000000000018
10
5.176776695296585
20
-21.500000000000014
42
1.0000005391257223
10
4.999999999999992
20
-21.676776695296628
10
4.9999999999999902
20
-26.500000000000007
10
-5.0000000000000098
20
-26.500000000000007
10
-5.0000000000000009
20
-21.676776695296628
42
1.0000005391257223
10
-5.1767766952966365
20
-21.500000000000007
10
-14.82322330470341
20
-21.500000000000007
42
1.0000005391257223
10
-15.000000000000009
20
-21.676776695296617
10
-15.000000000000009
20
-26.500000000000007
10
-25.000000000000007
20
-26.500000000000007
10
-25
20
-21.676776695296628
42
1.0000005390227473
10
-25.176776695296638
20
-21.500000000000007
10
-34.823223304703404
20
-21.500000000000014
42
1.0000005392286775
10
-35.000000000000007
20
-21.676776695296617
10
-35.000000000000007
20
-26.5
10
-45.000000000000007
20
-26.5
10
-45.000000000000007
20
-21.67677669529661
42
1.0000005390227473
10
-45.17677669529661
20
-21.5
10
-54.823223304703397
20
-21.5
42
1.0000005392286775
10
-55.000000000000007
20
-21.67677669529661
10
-55.000000000000007
20
-26.500000000000004
10
-66.584999999999994
20
-26.499999999999993
10
-66.58499999999998
20
-15.176776695296637
42
1.0000005389712523
10
-66.761776695296561
20
-15.000000000000009
10
-71.585000000000008
20
-15.000000000000009
10
-71.585000000000008
20
-5.000000000000008
10
-66.761776695296589
20
-5.0000000000000098
42
1.0000005390227473
10
-66.585000000000008
20
-4.8232233047033297
10
-66.58499999999998
20
4.8232233047033617
42
1.0000005390227473
10
-66.761776695296575
20
4.9999999999999902
10
-71.585000000000008
20
4.9999999999999893
10
-71.585000000000008
20
14.999999999999986
10
-66.761776695296589
20
14.999999999999986
42
1.0000005391257223
10
-66.585000000000008
20
15.176776695296596
10
-66.585000000000008
20
26.499999999999979
10
-55.000000000000014
20
26.499999999999972
10
-55.000000000000014
20
21.676776695296581
42
1.0000005391257223
10
-54.823223304703404
20
21.499999999999968
10
-45.176776695296624
20
21.499999999999968
42
1.0000005391257223
10
-45.000000000000014
20
21.676776695296578
10
-45.000000000000014
20
26.499999999999972
10
-35
20
26.499999999999968
10
-35.000000000000007
20
21.676776695296592
42
1.0000005391257223
10
-34.823223304703376
20
21.499999999999964
10
-25.176776695296592
20
21.499999999999957
42
1.0000005391257223
10
-25
20
21.676776695296574
10
-25
20
26.499999999999964
10
-15
20
26.499999999999964
0
ENDSEC
0
SECTION
2
OBJECTS
0
DICTIONARY
5
C
100
AcDbDictionary
3
ACAD_GROUP
350
D
3
ACAD_MLINESTYLE
350
17
0
DICTIONARY
5
D
100
AcDbDictionary
0
DICTIONARY
5
1A
330
C
100
AcDbDictionary
0
DICTIONARY
5
17
100
AcDbDictionary
0
ENDSEC
0
EOF
