0
SECTION
2
HEADER
9
$INSUNITS
70
4
9
$ACADVER
1
AC1014
9
$HANDSEED
5
FFFF
0
ENDSEC
0
SECTION
2
TABLES
0
TABLE
2
VPORT
5
8
100
AcDbSymbolTable
0
ENDTAB
0
TABLE
2
LTYPE
5
5
100
AcDbSymbolTable
0
LTYPE
5
14
100
AcDbSymbolTableRecord
100
AcDbLinetypeTableRecord
2
BYBLOCK
70
0
0
LTYPE
5
15
100
AcDbSymbolTableRecord
100
AcDbLinetypeTableRecord
2
BYLAYER
70
0
0
ENDTAB
0
TABLE
2
LAYER
5
2
100
AcDbSymbolTable
70
2
0
LAYER
5
50
100
AcDbSymbolTableRecord
100
AcDbLayerTableRecord
2
0
70
0
6
CONTINUOUS
0
ENDTAB
0
TABLE
2
STYLE
5
3
100
AcDbSymbolTable
70
1
0
STYLE
5
11
100
AcDbSymbolTableRecord
100
AcDbTextStyleTableRecord
2
STANDARD
70
0
0
ENDTAB
0
TABLE
2
VIEW
5
6
100
AcDbSymbolTable
70
0
0
ENDTAB
0
TABLE
2
UCS
5
7
100
AcDbSymbolTable
70
0
0
ENDTAB
0
TABLE
2
APPID
5
9
100
AcDbSymbolTable
70
2
0
APPID
5
12
100
AcDbSymbolTableRecord
100
AcDbRegAppTableRecord
2
ACAD
70
0
0
ENDTAB
0
TABLE
2
DIMSTYLE
5
A
100
AcDbSymbolTable
70
1
0
ENDTAB
0
TABLE
2
BLOCK_RECORD
5
1
100
AcDbSymbolTable
70
1
0
BLOCK_RECORD
5
1F
100
AcDbSymbolTableRecord
100
AcDbBlockTableRecord
2
*MODEL_SPACE
0
BLOCK_RECORD
5
1B
100
AcDbSymbolTableRecord
100
AcDbBlockTableRecord
2
*PAPER_SPACE
0
ENDTAB
0
ENDSEC
0
SECTION
2
BLOCKS
0
BLOCK
5
20
100
AcDbEntity
100
AcDbBlockBegin
2
*MODEL_SPACE
0
ENDBLK
5
21
100
AcDbEntity
100
AcDbBlockEnd
0
BLOCK
5
1C
100
AcDbEntity
100
AcDbBlockBegin
2
*PAPER_SPACE
0
ENDBLK
5
1D
100
AcDbEntity
100
AcDbBlockEnd
0
ENDSEC
0
SECTION
2
ENTITIES
0
CIRCLE
5
100
100
AcDbEntity
8
0
100
AcDbCircle
10
-69.317612598368385
20
10.377897900271948
30
0
40
0.8115
210
0
220
-0
230
1
0
CIRCLE
5
101
100
AcDbEntity
8
0
100
AcDbCircle
10
-69.090873858205214
20
-10
30
0
40
0.8115
210
0
220
-0
230
1
0
CIRCLE
5
102
100
AcDbEntity
8
0
100
AcDbCircle
10
69.267276382749756
20
10.066220674778572
30
0
40
0.8115
210
0
220
-0
230
1
0
CIRCLE
5
103
100
AcDbEntity
8
0
100
AcDbCircle
10
69.267276382749756
20
-10
30
0
40
0.8115
210
0
220
-0
230
1
0
LWPOLYLINE
5
104
100
AcDbEntity
8
0
100
AcDbPolyline
90
100
70
1
43
0.0
10
-66.585000000000036
20
26.500000000000004
10
-66.585000002351492
20
15.176776697648084
42
-1.0000005656557756
10
-66.76177669764327
20
15.00000000234663
10
-71.585000000000036
20
15
10
-71.585000000000036
20
5
10
-66.761776697648116
20
4.999999997648537
42
-1.0000005656557756
10
-66.585000002346661
20
4.8232233023567694
10
-66.585000002351492
20
-4.8232233023519093
42
-1.0000005656557756
10
-66.76177669764327
20
-4.9999999976533616
10
-71.585000000000036
20
-5
10
-71.585000000000036
20
-15
10
-66.761776697648116
20
-15.000000002351463
42
-1.0000005656557756
10
-66.585000002346661
20
-15.176776697643231
10
-66.585000000000036
20
-26.500000000000004
10
-55.000000000000057
20
-26.500000000000004
10
-54.999999997648558
20
-21.676776697648069
42
-1.0000005656557756
10
-54.823223302356787
20
-21.500000002346624
10
-45.176776697630821
20
-21.500000002334115
42
-1.0000005655576312
10
-45.000000002346709
20
-21.676776697643234
10
-45.000000000000057
20
-26.500000000000004
10
-35.000000000000036
20
-26.500000000000004
10
-34.999999997665881
20
-21.676776697630743
42
-1.0000005654103825
10
-34.823223302382793
20
-21.500000002320583
10
-25.176776697630764
20
-21.500000002334112
42
-1.0000005654103825
10
-25.000000002320697
20
-21.676776697617221
10
-25.000000000000036
20
-26.500000000000004
10
-15.000000000000036
20
-26.500000000000004
10
-14.999999997648544
20
-21.676776697648087
42
-1.0000005655085524
10
-14.823223302382784
20
-21.50000000232059
10
-5.1767766976481226
20
-21.500000002351459
42
-1.0000005655085524
10
-5.0000000023206947
20
-21.676776697617221
10
-5.0000000000000355
20
-26.500000000000004
10
4.9999999999999645
20
-26.500000000000004
10
5.0000000023601441
20
-21.67677669765677
42
-1.0000005655576312
10
5.1767766976172069
20
-21.500000002320583
10
14.823223302369268
20
-21.500000002334112
42
-1.0000005654103825
10
14.999999997679341
20
-21.676776697617221
10
14.999999999999964
20
-26.500000000000004
10
24.999999999999964
20
-26.500000000000004
10
25.000000002334069
20
-21.676776697630732
42
-1.0000005654103825
10
25.176776697617179
20
-21.50000000232059
10
34.823223302351913
20
-21.500000002351459
42
-1.0000005655085524
10
34.999999997679339
20
-21.676776697617221
10
34.999999999999964
20
-26.500000000000004
10
44.999999999999964
20
-26.500000000000004
10
45.000000002334069
20
-21.676776697630732
42
-1.0000005654103825
10
45.176776697617171
20
-21.500000002320583
10
54.82322330236925
20
-21.500000002334112
42
-1.0000005654103825
10
54.999999997679339
20
-21.676776697617221
10
54.999999999999964
20
-26.500000000000004
10
66.585000000000008
20
-26.500000000000004
10
66.58500000233407
20
-15.176776697630736
42
-1.0000005654103825
10
66.761776697617165
20
-15.000000002320579
10
71.585000000000008
20
-15
10
71.585000000000008
20
-5
10
66.76177669763068
20
-4.9999999976658795
42
-1.0000005654103825
10
66.585000002320584
20
-4.8232233023827664
10
66.58500000233407
20
4.8232233023692652
42
-1.0000005654103825
10
66.761776697617165
20
4.9999999976794207
10
71.585000000000008
20
5
10
71.585000000000008
20
15
10
66.761776697648031
20
15.000000002351467
42
-1.0000005655085524
10
66.585000002320584
20
15.176776697617225
10
66.585000000000008
20
26.500000000000004
10
54.999999999999964
20
26.500000000000004
10
54.999999997648516
20
21.676776697648101
42
-1.0000005655085524
10
54.82322330238275
20
21.500000002320597
10
45.176776697648037
20
21.50000000235147
42
-1.0000005655085524
10
45.00000000232059
20
21.676776697617228
10
44.999999999999964
20
26.500000000000004
10
34.999999999999964
20
26.500000000000004
10
34.999999997665853
20
21.67677669763075
42
-1.0000005654103825
10
34.823223302382758
20
21.50000000232059
10
25.176776697630658
20
21.500000002334119
42
-1.0000005654103825
10
25.00000000232059
20
21.676776697617228
10
24.999999999999964
20
26.500000000000004
10
14.999999999999964
20
26.500000000000004
10
14.999999997665853
20
21.67677669763075
42
-1.0000005654103825
10
14.823223302382758
20
21.50000000232059
10
5.1767766976306975
20
21.500000002334119
42
-1.0000005654103825
10
5.0000000023206237
20
21.676776697617228
10
4.9999999999999645
20
26.500000000000004
10
-5.0000000000000355
20
26.500000000000004
10
-5.0000000023341853
20
21.67677669763075
42
-1.0000005654103825
10
-5.176776697617278
20
21.50000000232059
10
-14.823223302369303
20
21.500000002334119
42
-1.0000005654103825
10
-14.999999997679376
20
21.676776697617228
10
-15.000000000000036
20
26.500000000000004
10
-25.000000000000036
20
26.500000000000004
10
-25.000000002334186
20
21.67677669763075
42
-1.0000005654103825
10
-25.176776697617278
20
21.50000000232059
10
-34.823223302369307
20
21.500000002334119
42
-1.0000005654103825
10
-34.999999997679375
20
21.676776697617228
10
-35.000000000000036
20
26.500000000000004
10
-45.000000000000057
20
26.500000000000004
10
-45.000000002334204
20
21.676776697630729
42
-1.0000005655576312
10
-45.176776697643319
20
21.500000002346631
10
-54.823223302369286
20
21.500000002334126
42
-1.0000005655576312
10
-54.999999997653397
20
21.676776697643248
10
-55.000000000000057
20
26.500000000000004
0
ENDSEC
0
SECTION
2
OBJECTS
0
DICTIONARY
5
C
100
AcDbDictionary
3
ACAD_GROUP
350
D
3
ACAD_MLINESTYLE
350
17
0
DICTIONARY
5
D
100
AcDbDictionary
0
DICTIONARY
5
1A
330
C
100
AcDbDictionary
0
DICTIONARY
5
17
100
AcDbDictionary
0
ENDSEC
0
EOF
