0
SECTION
2
HEADER
9
$INSUNITS
70
4
9
$ACADVER
1
AC1014
9
$HANDSEED
5
FFFF
0
ENDSEC
0
SECTION
2
TABLES
0
TABLE
2
VPORT
5
8
100
AcDbSymbolTable
0
ENDTAB
0
TABLE
2
LTYPE
5
5
100
AcDbSymbolTable
0
LTYPE
5
14
100
AcDbSymbolTableRecord
100
AcDbLinetypeTableRecord
2
BYBLOCK
70
0
0
LTYPE
5
15
100
AcDbSymbolTableRecord
100
AcDbLinetypeTableRecord
2
BYLAYER
70
0
0
ENDTAB
0
TABLE
2
LAYER
5
2
100
AcDbSymbolTable
70
2
0
LAYER
5
50
100
AcDbSymbolTableRecord
100
AcDbLayerTableRecord
2
0
70
0
6
CONTINUOUS
0
ENDTAB
0
TABLE
2
STYLE
5
3
100
AcDbSymbolTable
70
1
0
STYLE
5
11
100
AcDbSymbolTableRecord
100
AcDbTextStyleTableRecord
2
STANDARD
70
0
0
ENDTAB
0
TABLE
2
VIEW
5
6
100
AcDbSymbolTable
70
0
0
ENDTAB
0
TABLE
2
UCS
5
7
100
AcDbSymbolTable
70
0
0
ENDTAB
0
TABLE
2
APPID
5
9
100
AcDbSymbolTable
70
2
0
APPID
5
12
100
AcDbSymbolTableRecord
100
AcDbRegAppTableRecord
2
ACAD
70
0
0
ENDTAB
0
TABLE
2
DIMSTYLE
5
A
100
AcDbSymbolTable
70
1
0
ENDTAB
0
TABLE
2
BLOCK_RECORD
5
1
100
AcDbSymbolTable
70
1
0
BLOCK_RECORD
5
1F
100
AcDbSymbolTableRecord
100
AcDbBlockTableRecord
2
*MODEL_SPACE
0
BLOCK_RECORD
5
1B
100
AcDbSymbolTableRecord
100
AcDbBlockTableRecord
2
*PAPER_SPACE
0
ENDTAB
0
ENDSEC
0
SECTION
2
BLOCKS
0
BLOCK
5
20
100
AcDbEntity
100
AcDbBlockBegin
2
*MODEL_SPACE
0
ENDBLK
5
21
100
AcDbEntity
100
AcDbBlockEnd
0
BLOCK
5
1C
100
AcDbEntity
100
AcDbBlockBegin
2
*PAPER_SPACE
0
ENDBLK
5
1D
100
AcDbEntity
100
AcDbBlockEnd
0
ENDSEC
0
SECTION
2
ENTITIES
0
LWPOLYLINE
5
100
100
AcDbEntity
8
0
100
AcDbPolyline
90
88
70
1
43
0.0
10
26.500000000000021
20
-35
10
26.500000000000021
20
-25
10
21.676776697630711
20
-24.999999997665871
42
-1.0000005655085524
10
21.500000002337934
20
-24.82322330236542
10
21.500000002325429
20
-15.176776697622072
42
-1.0000005655085524
10
21.676776697643216
20
-15.000000002346638
10
26.500000000000021
20
-15
10
26.500000000000021
20
-5
10
21.676776697622032
20
-4.9999999976745464
42
-1.0000005655085524
10
21.50000000234661
20
-4.8232233023567472
10
21.500000002325429
20
4.8232233023779472
42
-1.0000005655085524
10
21.676776697643216
20
4.9999999976533793
10
26.500000000000021
20
5.0000000000000178
10
26.500000000000021
20
15.000000000000009
10
21.676776697630707
20
15.000000002334126
42
-1.0000005655576312
10
21.50000000234661
20
15.176776697643252
10
21.500000002325429
20
24.823223302377947
42
-1.0000005655085524
10
21.676776697643216
20
24.999999997653379
10
26.500000000000021
20
25
10
26.500000000000021
20
35.000000000000014
10
21.676776697622039
20
35.000000002325457
42
-1.0000005655085524
10
21.500000002346606
20
35.176776697643248
10
21.50000000234277
20
44.823223302360596
42
-1.0000005656067055
10
21.676776697643216
20
44.999999997653376
10
26.500000000000021
20
45.000000000000014
10
26.500000000000021
20
61.150000000000006
10
15
20
61.150000000000006
10
14.999999997665887
20
56.326776697630734
42
-1.0000005655576312
10
14.823223302356769
20
56.150000002346623
10
5.1767766976480756
20
56.150000002351462
42
-1.0000005656557756
10
5.0000000023466207
20
56.326776697643233
10
5
20
61.150000000000006
10
-5
20
61.150000000000006
10
-5.0000000023254394
20
56.326776697622059
42
-1.0000005655085524
10
-5.1767766976432306
20
56.150000002346623
10
-14.823223302351924
20
56.150000002351462
42
-1.0000005656557756
10
-14.999999997653379
20
56.326776697643233
10
-15
20
61.150000000000006
10
-26.500000000000021
20
61.150000000000006
10
-26.500000000000021
20
45.000000000000014
10
-21.676776697639415
20
44.999999997657206
42
-1.0000005656067055
10
-21.500000002346642
20
44.823223302356766
10
-21.500000002325457
20
35.176776697622067
42
-1.0000005655085524
10
-21.676776697643255
20
35.000000002346646
10
-26.500000000000021
20
35.000000000000014
10
-26.500000000000021
20
25
10
-21.676776697639426
20
24.999999997657206
42
-1.0000005656067055
10
-21.500000002346642
20
24.823223302356769
10
-21.500000002334136
20
15.176776697630739
42
-1.0000005655576312
10
-21.676776697643255
20
15.000000002346642
10
-26.500000000000021
20
15.000000000000009
10
-26.500000000000021
20
5.0000000000000178
10
-21.676776697622067
20
4.9999999976745642
42
-1.0000005655085524
10
-21.500000002346646
20
4.823223302356765
10
-21.500000002351488
20
-4.8232233023519111
42
-1.0000005656557756
10
-21.676776697643255
20
-4.9999999976533571
10
-26.500000000000021
20
-5
10
-26.500000000000021
20
-15
10
-21.676776697639419
20
-15.000000002342802
42
-1.0000005656067055
10
-21.500000002346646
20
-15.176776697643252
10
-21.500000002334136
20
-24.823223302369261
42
-1.0000005655085524
10
-21.67677669763458
20
-24.99999999766203
10
-26.500000000000021
20
-25
10
-26.500000000000021
20
-35
10
-21.67677669763075
20
-35.00000000233414
42
-1.0000005655085524
10
-21.500000002337963
20
-35.176776697634573
10
-21.500000002316785
20
-44.823223302386609
42
-1.0000005654103825
10
-21.67677669763458
20
-44.99999999766203
10
-26.500000000000021
20
-45
10
-26.500000000000021
20
-61.150000000000006
10
-15
20
-61.150000000000006
10
-14.999999997665887
20
-56.326776697630748
42
-1.0000005654103825
10
-14.823223302382795
20
-56.150000002320617
10
-5.1767766976307215
20
-56.15000000233411
42
-1.0000005654103825
10
-5.0000000023205953
20
-56.326776697617227
10
-5
20
-61.150000000000006
10
5
20
-61.150000000000006
10
5.0000000023341169
20
-56.326776697630748
42
-1.0000005654103825
10
5.1767766976172034
20
-56.150000002320617
10
14.823223302369273
20
-56.150000002334124
42
-1.0000005654103825
10
14.999999997679407
20
-56.326776697617227
10
15
20
-61.150000000000006
10
26.500000000000021
20
-61.150000000000006
10
26.500000000000021
20
-45
10
21.676776697630697
20
-44.999999997665874
42
-1.0000005655085524
10
21.500000002337938
20
-44.82322330236542
10
21.500000002316749
20
-35.176776697613384
42
-1.0000005654103825
10
21.676776697634544
20
-35.00000000233797
0
ENDSEC
0
SECTION
2
OBJECTS
0
DICTIONARY
5
C
100
AcDbDictionary
3
ACAD_GROUP
350
D
3
ACAD_MLINESTYLE
350
17
0
DICTIONARY
5
D
100
AcDbDictionary
0
DICTIONARY
5
1A
330
C
100
AcDbDictionary
0
DICTIONARY
5
17
100
AcDbDictionary
0
ENDSEC
0
EOF
