0
SECTION
2
HEADER
9
$INSUNITS
70
4
9
$ACADVER
1
AC1014
9
$HANDSEED
5
FFFF
0
ENDSEC
0
SECTION
2
TABLES
0
TABLE
2
VPORT
5
8
100
AcDbSymbolTable
0
ENDTAB
0
TABLE
2
LTYPE
5
5
100
AcDbSymbolTable
0
LTYPE
5
14
100
AcDbSymbolTableRecord
100
AcDbLinetypeTableRecord
2
BYBLOCK
70
0
0
LTYPE
5
15
100
AcDbSymbolTableRecord
100
AcDbLinetypeTableRecord
2
BYLAYER
70
0
0
ENDTAB
0
TABLE
2
LAYER
5
2
100
AcDbSymbolTable
70
2
0
LAYER
5
50
100
AcDbSymbolTableRecord
100
AcDbLayerTableRecord
2
0
70
0
6
CONTINUOUS
0
ENDTAB
0
TABLE
2
STYLE
5
3
100
AcDbSymbolTable
70
1
0
STYLE
5
11
100
AcDbSymbolTableRecord
100
AcDbTextStyleTableRecord
2
STANDARD
70
0
0
ENDTAB
0
TABLE
2
VIEW
5
6
100
AcDbSymbolTable
70
0
0
ENDTAB
0
TABLE
2
UCS
5
7
100
AcDbSymbolTable
70
0
0
ENDTAB
0
TABLE
2
APPID
5
9
100
AcDbSymbolTable
70
2
0
APPID
5
12
100
AcDbSymbolTableRecord
100
AcDbRegAppTableRecord
2
ACAD
70
0
0
ENDTAB
0
TABLE
2
DIMSTYLE
5
A
100
AcDbSymbolTable
70
1
0
ENDTAB
0
TABLE
2
BLOCK_RECORD
5
1
100
AcDbSymbolTable
70
1
0
BLOCK_RECORD
5
1F
100
AcDbSymbolTableRecord
100
AcDbBlockTableRecord
2
*MODEL_SPACE
0
BLOCK_RECORD
5
1B
100
AcDbSymbolTableRecord
100
AcDbBlockTableRecord
2
*PAPER_SPACE
0
ENDTAB
0
ENDSEC
0
SECTION
2
BLOCKS
0
BLOCK
5
20
100
AcDbEntity
100
AcDbBlockBegin
2
*MODEL_SPACE
0
ENDBLK
5
21
100
AcDbEntity
100
AcDbBlockEnd
0
BLOCK
5
1C
100
AcDbEntity
100
AcDbBlockBegin
2
*PAPER_SPACE
0
ENDBLK
5
1D
100
AcDbEntity
100
AcDbBlockEnd
0
ENDSEC
0
SECTION
2
ENTITIES
0
LWPOLYLINE
5
100
100
AcDbEntity
8
0
100
AcDbPolyline
90
88
70
1
43
0.0
10
26.500000000000021
20
-15.000000000000009
10
26.500000000000021
20
-5.0000000000000089
10
21.676776697634573
20
-4.9999999976620586
42
-1.0000005655085524
10
21.50000000233414
20
-4.8232233023692705
10
21.500000002337963
20
4.8232233023654398
42
-1.0000005655085524
10
21.67677669763075
20
4.9999999976658716
10
26.500000000000021
20
5
10
26.500000000000021
20
15
10
21.676776697643248
20
15.000000002346631
42
-1.0000005655576312
10
21.50000000233414
20
15.176776697630746
10
21.500000002337959
20
24.823223302365417
42
-1.0000005655085524
10
21.676776697630746
20
24.999999997665867
10
26.500000000000021
20
25
10
26.500000000000021
20
35
10
21.67677669763458
20
35.00000000233797
42
-1.0000005655085524
10
21.500000002334136
20
35.176776697630736
10
21.50000000234666
20
44.823223302356737
42
-1.0000005655576312
10
21.676776697630743
20
44.999999997665874
10
26.500000000000021
20
45
10
26.500000000000021
20
61.150000000000006
10
15
20
61.150000000000006
10
14.999999997679401
20
56.326776697617234
42
-1.0000005654103825
10
14.823223302369282
20
56.150000002334124
10
5.1767766976432537
20
56.150000002346644
42
-1.0000005655576312
10
5.0000000023341284
20
56.326776697630748
10
5
20
61.150000000000006
10
-5
20
61.150000000000006
10
-5.0000000023379538
20
56.326776697634585
42
-1.0000005655085524
10
-5.1767766976307232
20
56.150000002334139
10
-14.823223302339395
20
56.150000002363988
42
-1.0000005656557756
10
-14.999999997665869
20
56.326776697630748
10
-15
20
61.150000000000006
10
-26.499999999999986
20
61.150000000000006
10
-26.499999999999986
20
45
10
-21.676776697643238
20
44.999999997653333
42
-1.0000005655576312
10
-21.500000002334115
20
44.823223302369264
10
-21.500000002346628
20
35.176776697643241
42
-1.0000005655576312
10
-21.676776697630729
20
35.000000002334126
10
-26.499999999999986
20
35
10
-26.499999999999986
20
25
10
-21.676776697643238
20
24.99999999765334
42
-1.0000005655576312
10
-21.500000002334115
20
24.823223302369264
10
-21.500000002311921
20
15.176776697608545
42
-1.0000005653612909
10
-21.676776697630725
20
15.000000002334133
10
-26.499999999999986
20
15
10
-26.499999999999986
20
5
10
-21.676776697608528
20
4.9999999976880769
42
-1.0000005653612909
10
-21.500000002334119
20
4.8232233023692643
10
-21.500000002311921
20
-4.8232233023914732
42
-1.0000005653612909
10
-21.676776697630725
20
-4.9999999976658849
10
-26.499999999999986
20
-5.0000000000000089
10
-26.499999999999986
20
-15.000000000000009
10
-21.676776697643227
20
-15.000000002346635
42
-1.0000005655576312
10
-21.500000002334119
20
-15.176776697630741
10
-21.500000002320604
20
-24.82322330238279
42
-1.0000005654103825
10
-21.676776697630725
20
-24.999999997665885
10
-26.499999999999986
20
-25
10
-26.499999999999986
20
-35.000000000000014
10
-21.676776697643241
20
-35.000000002346653
42
-1.0000005655576312
10
-21.500000002334119
20
-35.176776697630743
10
-21.500000002311911
20
-44.823223302391483
42
-1.0000005653612909
10
-21.676776697630729
20
-44.999999997665874
10
-26.499999999999986
20
-45.000000000000014
10
-26.499999999999986
20
-61.150000000000006
10
-15
20
-61.150000000000006
10
-14.999999997662037
20
-56.326776697634557
42
-1.0000005655085524
10
-14.823223302369259
20
-56.150000002334124
10
-5.176776697643235
20
-56.150000002346623
42
-1.0000005655576312
10
-5.0000000023341116
20
-56.326776697630727
10
-5
20
-61.150000000000006
10
5
20
-61.150000000000006
10
5.0000000023466429
20
-56.326776697643233
42
-1.0000005655576312
10
5.1767766976307392
20
-56.150000002334124
10
14.823223302339416
20
-56.150000002363967
42
-1.0000005656557756
10
14.999999997665883
20
-56.326776697630727
10
15
20
-61.150000000000006
10
26.500000000000021
20
-61.150000000000006
10
26.500000000000021
20
-45.000000000000014
10
21.676776697634573
20
-44.999999997662059
42
-1.0000005655085524
10
21.50000000233414
20
-44.823223302369271
10
21.500000002363997
20
-35.1767766976606
42
-1.0000005656557756
10
21.676776697630746
20
-35.000000002334133
10
26.500000000000021
20
-35.000000000000014
10
26.500000000000021
20
-25
10
21.676776697643248
20
-24.999999997653383
42
-1.0000005655576312
10
21.50000000233414
20
-24.823223302369275
10
21.500000002337963
20
-15.176776697634569
42
-1.0000005655085524
10
21.67677669763075
20
-15.000000002334136
0
ENDSEC
0
SECTION
2
OBJECTS
0
DICTIONARY
5
C
100
AcDbDictionary
3
ACAD_GROUP
350
D
3
ACAD_MLINESTYLE
350
17
0
DICTIONARY
5
D
100
AcDbDictionary
0
DICTIONARY
5
1A
330
C
100
AcDbDictionary
0
DICTIONARY
5
17
100
AcDbDictionary
0
ENDSEC
0
EOF
